<?xml version="1.0" encoding="UTF-8"?>
<svg version="1.1" viewBox="0 0 2000 2000" width="1280" height="1280" xmlns="http://www.w3.org/2000/svg">
<path transform="translate(594,848)" d="m0 0h29l7 14 6 5 3 11 1 22v16l-3 29-5 22-5 16-8 20-11 21-11 16-11 13-6 7-8 7-14 11-15 9-21 10-20 6-21 4-10 1h-20l-9-2-6-6-18-2-5-3-1-5-7 1-5-5-5-10-1-1-3 9-2 3h-3l-9 18-6 4-14 3h-23l-15-2-13-4-16-8-15-11-12-9-16-16-12-17-9-17-8-22-6-27-1-10v-29l2-21 3-7h12l27 3 19 4 21 7 17 8 17 11 14 11 11 11 13 17 7 9 8 11 2 5 1 5 4-22 5-19 7-17 9-16 13-17 22-22 18-13 15-9 25-12 27-9 22-5 31-4zm-245 207m3 4 2 4 5 5-2-5zm7 10m1 1m1 1 1 2zm1 2m1 1m1 1 1 2zm1 2m1 1v2l2-1z" fill="#6c9f6c"/>
<path transform="translate(1631,915)" d="m0 0h25l1 1 1 16 2-1 2-3h2l1 9h2l1-21h26l2 9v4l6 2 4 6 2 15 1 1 21 1 3 1 3 12 6 4 2 6 1 15 2 28 5 1 7-4 4-5 2-8 1-49 1-1h24l1 1 1 12 6 2 3 6 1 5 1 25-1 41-2 13-4 9-6 8-7 6-10 5-16 3h-10l-16-3-9-4-5-5-5-4-10-7-4-5 2-6 7-13 7 6 9 4 10 2h6l1-2-7-1-5-5-10-8-6-7-4-7v13l-2 3-4 8-6 2-7-1-7-3-2-4-13-1-2 5-8 4h-7l-6-4-5-4-9-2-2 6-7 5h-14l-11-4-1-1-8-1-11 4-12 3h-9l-10-3-9-7-10-8-6-8-2-10 2-9 6-8 10-7h2l-2-5 1-1-4-1h-6l-8 8-9 1-10-4-9-3h-5l-6 7-3 14-1 29-3 9-4 3-7 1-8-3-4-4-7-2-7-1-2 6-5 3h-9l-11-3-7 1-12 4-6 1h-10l-10-4-9-7-7-6-6-8-2-6-1-8v-58l1-2h25l1 1 2 11 7 5 2 7 2 36 1 5h6l6-4 4-5 2-12 1-44h25l3 9 3 5 1 3h2l3 8 2-24 2-1h18l3 3 2 7 7-6 8-5 3-1h13l8 4 5 4 11 17 1 2 6-11 5-6 9-6 10-4 4-1h21l13 4 10 7 7 9 8 10 3 5 2 12 2 25 6 11v3h4v-121zm-56 68-14 4v1l12-1 5-2 1-2zm-36 4m36 27m-1 1 1 2zm-4 2-8 4v2l7-1 5-5zm136 3m0 2 1 3 1-3zm-126 6-3 3 1 3 4-2-1-4z" fill="#5E5F5D"/>
<path transform="translate(705,915)" d="m0 0 4 1 2 12 5 2 4 6 2 13v6l11-3h12l9 3 6 4 6 7 3 5v2l5 1 3 4 1 6 5-12 9-10 10-7 13-4h17l14 4 10 7 8 9 4 7 5 3 4 6 4 16 7-6 11-6h-6l1-3h5l-3-2-16-4-1-6 6-11 8-7 8-4 11-3h19l12 3 11 7 8 10 9 11 3 9 3 32 6 12 3 1v-120h26l1 1 1 12 1 2 6-5 1 1 1 7 1 103-2 10-9 5-5-1-14-7-6-1-2 4-7 5-5 1h-7l-9-3-7-3h-7l-13 4-9 2h-11l-9-3-9-7-11-9-5-8-2-6 1-8-1 1-3 5-8-1 6 4v6h2v2l4 1 2 5-3 7-8 6-9 4-7 2-15 1-16-3-10-5-10-9-10-8-7-8-2 15-3 9-5 4h-12l-5-4-3-3-10-3-1-2-1-45-1-4h-6l-7 5-4 10-1 8-1 27-3 8-4 3-10 1-6-3-3-5-11-3-1-2v-122zm230 67-18 5v1l13-1 5-2zm-103 3-1 2 9 1v-3zm47 19m-1 2m55 6m-2 1-8 6-5 2v2h6l6-4 3-4v-2zm-86 3-19 4-3 2 2 1h14l9-4 1-3zm92 12-5 6 6-1 1-5z" fill="#e2e8f0"/>
<path transform="translate(216,912)" d="m0 0h12l27 3 19 4 21 7 17 8 17 11 14 11 11 11 13 17 7 9 8 11 2 5 1 5 2-4 2 29 5 26 3 12-3-2-3 9-2 3h-3l-9 18-6 4-14 3h-23l-15-2-13-4-16-8-15-11-12-9-16-16-12-17-9-17-8-22-6-27-1-10v-29l2-21zm133 143m3 4 2 4 5 5-2-5zm7 10m1 1m1 1 1 2zm1 2m1 1m1 1 1 2zm1 2m1 1v2l2-1z" fill="#6c9f6c"/>
<path transform="translate(1029,920)" d="m0 0 33 1 7 10 17 28 13 23 6 10 2-4h2l1-67 26-1 2 3 2 10 6 3 3 9 2 26 1 3 6-10 11-8 10-4 5-1h19l9 2 11 6 6 5 6 8v2l4 2 5 8 2 7 2 29 4 9 6 11-1 7-7 5-7 1-11-2-9-4h-8l-19 6h-15l-10-5-5-3-4-4-2-1v-2l-7-1-3 6-4 5-9 4h-13l-9-3-5-4v-2l-6-2-8-13-15-26-8-13v-2l-2 1-2 9-2 36-1 11-3 5-5 2h-11l-5-4-4-4-10-2-1-1v-117zm122 63-1 11v13l5-5 10-7 5-3-1-3 2-2-11-4zm52 0-12 4v1l12-1 5-3v-1zm-97 10 2 6 2-1-3-5zm97 22-11 6-1 2 7-1 6-5zm6 13-3 3 1 2h3l1-4z" fill="#e2e8f0"/>
<path transform="translate(1554,951)" d="m0 0h21l13 4 10 7 7 9 8 10 3 5 2 12 2 25 3 8-1 5-7 4-9 2h-12l-7-4-5-6-2-3-5 5-8 5-9 3h-19l-9-4-8-9-3-10 2-11 6-8 10-7h2l-2-5 1-1-4-1h-6l-8 8-9 1-10-4-9-3h-5l-6 7-3 14-1 29-3 9-4 3-7 1-8-3-4-4-7-2-7-1-2 6-5 3h-9l-11-3-7 1-12 4-6 1h-10l-10-4-9-7-7-6-6-8-2-6-1-8v-58l1-2h25l1 1 2 11 7 5 2 7 2 36 1 5h6l6-4 4-5 2-12 1-44h25l3 9 3 5 1 3h2l3 8 2-24 2-1h18l3 3 2 7 7-6 8-5 3-1h13l8 4 5 4 11 17 1 2 6-11 5-6 9-6 10-4zm21 32-14 4v1l12-1 5-2 1-2zm-36 4m36 27m-1 1 1 2zm-4 2-8 4v2l7-1 5-5z" fill="#5E5F5D"/>
<path transform="translate(677,1100)" d="m0 0h716l2 2 3 11 3 5v5l-4 3-4 1h-690l-8-2-3-3-1-3-4-2-10-1-1-2v-13z" fill="#6c9f6c"/>
<path transform="translate(1708,953)" d="m0 0 22 1 3 1 3 12 6 4 2 6 1 15 2 28 5 1 7-4 4-5 2-8 1-49 1-1h24l1 1 1 12 6 2 3 6 1 5 1 25-1 41-2 13-4 9-6 8-7 6-10 5-16 3h-10l-16-3-9-4-5-5-5-4-10-7-4-5 2-6 7-13 7 6 9 4 10 2h6l1-2-7-1-5-5-10-8-6-7-5-9-1-5v-63z" fill="#e2e8f0"/>
<path transform="translate(1138,933)" d="m0 0 7 2 3 6 2 15 1 15 1 3 6-10 11-8 10-4 5-1h19l9 2 11 6 6 5 6 8v2l4 2 5 8 2 7 2 29 4 9 6 11-1 7-7 5-7 1-11-2-9-4h-8l-19 6h-15l-10-5-5-3-4-4-2-1v-2l-7-1-3 6-4 5-9 4h-13l-9-3-5-4v-2l-6-2v-1l33-2v-73zm13 50-1 11v13l5-5 10-7 5-3-1-3 2-2-11-4zm52 0-12 4v1l12-1 5-3v-1zm0 32-11 6-1 2 7-1 6-5zm6 13-3 3 1 2h3l1-4z" fill="#e2e8f0"/>
<path transform="translate(1395,1111)" d="m0 0h2l4 7v5l-4 3-4 1h-690l-8-2-3-3-1-3-3-3 67-1h640z" fill="#5E5F5D"/>
<path transform="translate(705,915)" d="m0 0 4 1 2 12 5 2 4 6 2 13v6l11-3h12l9 3 6 4 6 7 2 18v55l-25 1-1-2-1-45-1-4h-6l-7 5-4 10-1 8-1 27-3 8-4 3-10 1-6-3-3-5-11-3-1-2v-122z" fill="#e2e8f0"/>
<path transform="translate(627,861)" d="m0 0 4 2 5 4 3 11 1 22v16l-3 29-5 22-5 16-8 20-11 21-11 16-11 13-6 7-8 7-14 11-15 9-21 10-20 6-21 4-10 1h-20l-9-2-6-6-18-2-5-3-1-5h-5l6-7 9-9 8-7 7-7 8-7 35-35 7-8 9-10 7-8 9-10 9-11 12-14 8-10 12-16 10-13 8-9 1 2-7 14-15 24-13 19-13 18-11 13-9 11-9 10-12 13-24 24-8 7-14 13-14 11-6 5-1 2 24 1 4 1 8-2h10l20-3 19-5 16-6 23-12 14-10 10-9 7-6 9-11 7-9 10-15 12-24 8-22 6-25 3-20z" fill="#5E5F5D"/>
<path transform="translate(1554,951)" d="m0 0h21l13 4 10 7 7 9 8 10 3 5 2 12 2 25 3 8-1 5-7 4-9 2h-12l-7-4-5-6-2-3-5 5-8 5-9 3h-19l-9-4-8-9-3-10 2-11 6-8 12-8 21-3 13-1v-2l7-2-2-9-4-3-3-1h-10l-8 4-4 6-2 5-23-3-3-3 3-9 7-9 9-6 10-4zm21 63m-1 1 1 2zm-4 2-8 4v2l7-1 5-5z" fill="#e2e8f0"/>
<path transform="translate(1289,925)" d="m0 0h5l2 16 4 1 5 4 2 6 4 1 17 1 2 5 2 9 5 2 2 9-4 4-17 5h-5v2l-4 4-1 2-1 10 2 14h6l6-4 3-3 4 1 5 10v5h2v2l5 1 2 6-2 5-9 7-6 3-5 1h-14l-9-3-4-2v-2l-5-2-14-14-4-8-2-10-1-26-1-12-12-1-1-1v-19h15v-22l2-2z" fill="#e2e8f0"/>
<path transform="translate(1341,954)" d="m0 0h25l1 1 2 11 7 5 2 7 2 36 1 5h6l6-4 4-5 2-12 1-44h25l2 5-1 29-1 51-6 1h-14l-3-5-1-7-5 3-7 6-9 4-4 1h-16l-9-4-8-10-2-6-1-8v-58z" fill="#e2e8f0"/>
<path transform="translate(1482,952)" d="m0 0h13l8 4 5 4 5 7 2 9v5l-7 3-9 3h-5l-6-12-5-3-8 1-6 5-2 5-1 7-1 49-25 1-1-2v-34l-1-37 1-12 2-1h18l3 3 2 7 7-6 8-5z" fill="#e2e8f0"/>
<path transform="translate(260,962)" d="m0 0 6 2 16 12 10 9 12 11 13 12 7 8 10 11 22 28 14 20 6 10 2 1 1-16 2-14v-17l-4-24-6-18-8-15 1-2 6 8 8 10 4 6 2 5 1 5 2-4 2 29 5 26 3 12-3-2-3 9-2 3h-3l-9 18-6 4-14 3h-23l-15-2-13-4-16-8-15-11-4-4 5 2 17 8 14 4 5 1 15 1h15l17-2 12-3-2-5-13-18-8-11-12-15-9-11-1-3h-2l-7-8-11-13-8-8-7-8-31-31zm89 93m3 4 2 4 5 5-2-5zm7 10m1 1m1 1 1 2zm1 2m1 1m1 1 1 2zm1 2m1 1v2l2-1z" fill="#5E5F5D"/>
<path transform="translate(1631,915)" d="m0 0h25l1 1-1 123h-26l-1-2 1-121z" fill="#e2e8f0"/>
<path transform="translate(1668,916)" d="m0 0h26l1 2-1 121-5 1-20-1-1-1z" fill="#e2e8f0"/>
<path transform="translate(986,916)" d="m0 0h26l1 1-1 122-24 1-3-2z" fill="#e2e8f0"/>
<path transform="translate(1012,926)" d="m0 0 2 3 1 2 6-5 1 1 1 7 1 103-2 10-9 5-5-1-14-7-6-1-2 4-7 5-5 1h-7l-9-3-7-3h-7l-13 4-9 2h-11l-9-3-9-7-2-3 6 1h17l13-4 4-3 9-2 5 6 6 3h12l12-3 4-3-1-8 2 1 3 7 5 4h24z" fill="#5E5F5D"/>
<path transform="translate(1792,964)" d="m0 0 1 3 6 2 3 6 1 5 1 25-1 41-2 13-4 9-6 8-7 6-10 5-16 3h-10l-16-3-9-4-5-5-3-4 14 3h22l15-4 10-6 5-5 6-9 3-10 1-58z" fill="#5E5F5D"/>
<path transform="translate(1138,933)" d="m0 0 7 2 3 6 2 15 2 30-1 8-1 15-1 3v12l4 8 4 5h-4l-3 6-4 5-9 4h-13l-9-3-5-4v-2l-6-2v-1l33-2v-73z" fill="#5E5F5D"/>
<path transform="translate(1027,923)" d="m0 0h1v116h27l-1-82h3l12 22 4 8-2 1-2 9-2 36-1 11-3 5-5 2h-11l-5-4-4-4-10-2-1-1z" fill="#5E5F5D"/>
<path transform="translate(722,974)" d="m0 0h12l6 5 1 3v7h-7l-7 5-4 10-1 8-1 27-3 8-4 3-10 1-6-3-3-5-8-2v-1l5-1h17v-49l3-9 7-6z" fill="#5E5F5D"/>
<path transform="translate(865,975)" d="m0 0 5 4 5 5 3 6 2 7v7l-3 7h-2l-2 5-1 2-11-1-4-3-5 1-3 2-10 1-13 3-1 1 10 1v1h-12l-9-4-6-5-4-8v-3l63-1v-15z" fill="#5E5F5D"/>
<path transform="translate(1329,964)" d="m0 0h2l1 4 5 2 2 9-4 4-17 5h-5v2l-4 4-1 2-1 10 2 16-8-1-5-5-2-8v-34l1-1 33 1z" fill="#5E5F5D"/>
<path transform="translate(1251,1029)" d="m0 0 3 4 4 7-1 7-7 5-7 1-11-2-9-4h-8l-19 6h-15l-10-5-5-3-6-6 5 1 4 1h17l13-4 5-4 4-1 2 1 1-2 6 7 6 3h12l12-3 4-3z" fill="#5E5F5D"/>
<path transform="translate(766,968)" d="m0 0 3 3v2l5 1 3 4 1 11v13l3 12 2 6-2 17-3 9-5 4h-12l-5-4-3-3-7-2 3-2h19l-1-55z" fill="#5E5F5D"/>
<path transform="translate(869,1027)" d="m0 0h3v2l4 1 2 5-3 7-8 6-9 4-7 2-15 1-16-3-10-5-10-9 2-1 10 4 5 1h21l15-4 11-7z" fill="#5E5F5D"/>
<path transform="translate(1332,1028)" d="m0 0 3 1v2l5 1 2 6-2 5-9 7-6 3-5 1h-14l-9-3-4-2v-2l-5-2-2-4 7 1h16l12-4 6-4z" fill="#5E5F5D"/>
<path transform="translate(1734,965)" d="m0 0 8 6 2 6 1 15 2 29-2 1-7-3-3-3-2-6v-38z" fill="#5E5F5D"/>
<path transform="translate(1367,963)" d="m0 0 10 10 1 5 2 36 1 5 2 2-8-1-7-6-1-3z" fill="#5E5F5D"/>
<path transform="translate(1205 1e3)" d="m0 0 4 1-1 10-4 4h-3l-9 5 2 2-9 1-7-3-3-3-1-5 3-5 5-3 12-3z" fill="#5E5F5D"/>
<path transform="translate(918,970)" d="m0 0h10l6 3 3 4v6l-14 3-3 1h10v1l-27 4-10-1 1-3h5l-3-2-5-1v-1l13 1 2-6 6-7z" fill="#5E5F5D"/>
<path transform="translate(1574 1e3)" d="m0 0h5l1 1-1 9-5 5-7 3-5 1v2l4 1-3 1h-7l-7-3-3-3v-7l5-5 8-3z" fill="#5E5F5D"/>
<path transform="translate(1190,970)" d="m0 0h10l6 3 3 4 1 4-1 2-12 3-3 1 3 2-27 3-2-4 1-1-5-2 4-1 7 1 5-9 6-5z" fill="#5E5F5D"/>
<path transform="translate(819,970)" d="m0 0h11l6 4 4 6 1 7-1-2-8 1 2 2-4 1h-26l3-9 4-6z" fill="#5E5F5D"/>
<path transform="translate(960,970)" d="m0 0 5 5 6 7 3 9 2 23v9l-12 1-1-1-1-44z" fill="#5E5F5D"/>
<path transform="translate(1602,968)" d="m0 0 3 3 8 10 3 5 2 12 1 17v8l-12 1-1-2-1-43z" fill="#5E5F5D"/>
<path transform="translate(933 1e3)" d="m0 0 4 1-1 10-4 4 1-4-10 7-5 1v2l4 1-9 1-7-3-3-3-1-5 3-5 5-3 5-2z" fill="#5E5F5D"/>
<path transform="translate(1233,971)" d="m0 0 2 1v2l4 2 5 8 2 7 2 32-3-1-3 2h-6l-1-2-1-43z" fill="#5E5F5D"/>
<path transform="translate(1764,1031)" d="m0 0h2l-1 9-4 8-7 6-6 2h-8l1-3-7-1-5-5-8-6 2-1 5 2h17l10-4z" fill="#5E5F5D"/>
<path transform="translate(710,927)" d="m0 0 7 4 3 5 2 13v7l-8 7-3 4h-2v-27z" fill="#5E5F5D"/>
<path transform="translate(1295,938)" d="m0 0 1 3 4 1 5 4 3 8-13 1-1-1z" fill="#5E5F5D"/>
<path transform="translate(1074,941)" d="m0 0 3 3 13 22 13 23 5 7v3h2l1 5-4-4-13-22-20-35z" fill="#5E5F5D"/>
<path transform="translate(1518,970)" d="m0 0 2 1-1 4z" fill="#5E5F5D"/>
<path transform="translate(1536,987)" d="m0 0" fill="#5E5F5D"/>
<path transform="translate(1533,986)" d="m0 0" fill="#5E5F5D"/>
</svg>
